<svg width="640.333" height="640.333" viewBox="0 0 640.333 640.333" xmlns="http://www.w3.org/2000/svg">
    <rect width="640.333" height="640.333" fill="white" />
    <g id="svgGroup" transform="translate(0, 193.233)" stroke-linecap="round" fill-rule="evenodd" font-size="9pt" stroke="#000" stroke-width="0.25mm" fill="#000" style="stroke:#000;stroke-width:0.25mm;fill:#000">
        <path d="M 393.855 0 L 223.608 0 L 223.608 6.534 L 385.869 6.897 L 378.609 16.335 L 219.252 247.203 L 219.252 254.1 L 396.033 254.1 L 396.033 247.566 L 226.875 247.203 L 234.135 238.128 L 393.855 6.897 L 393.855 0 Z M 64.977 0 L 64.977 254.1 L 196.02 254.1 L 196.02 246.84 L 71.874 246.84 L 71.874 0 L 64.977 0 Z M 573.177 0 L 482.427 0 L 482.427 254.1 L 489.324 254.1 L 489.324 152.097 L 570.636 152.097 A 116.847 116.847 0 0 0 584.779 151.288 Q 594.458 150.106 602.217 147.197 A 54.463 54.463 0 0 0 617.885 138.271 A 50.108 50.108 0 0 0 623.816 132.495 Q 632.346 122.694 636.339 108.174 A 106.602 106.602 0 0 0 639.334 92.565 Q 640.207 85.26 640.316 77.12 A 174.643 174.643 0 0 0 640.332 74.778 A 131.357 131.357 0 0 0 639.334 58.216 A 99.796 99.796 0 0 0 636.339 43.379 Q 632.346 29.403 623.997 19.784 A 53.815 53.815 0 0 0 604.097 5.486 A 62.686 62.686 0 0 0 603.125 5.082 A 65.546 65.546 0 0 0 589.61 1.311 Q 582.025 0 573.177 0 Z M 0 0 L 0 5.808 L 31.581 6.897 L 31.581 254.1 L 38.115 254.1 L 38.115 0 L 0 0 Z M 417.45 0 L 417.45 5.808 L 449.031 6.897 L 449.031 254.1 L 455.565 254.1 L 455.565 0 L 417.45 0 Z M 570.273 145.2 L 489.324 145.2 L 489.324 7.26 L 573.54 7.26 Q 587.141 7.26 597.32 10.55 A 51.871 51.871 0 0 1 600.765 11.798 A 47.495 47.495 0 0 1 614.615 20.242 A 44.116 44.116 0 0 1 619.278 25.047 A 52.305 52.305 0 0 1 627.459 38.828 A 65.682 65.682 0 0 1 629.986 46.283 Q 633.381 58.61 633.434 74.28 A 147.19 147.19 0 0 1 633.435 74.778 Q 633.435 91.839 629.805 105.089 A 64.236 64.236 0 0 1 625.177 117.249 A 50.219 50.219 0 0 1 618.552 127.232 A 46.23 46.23 0 0 1 602.587 139.138 A 55.881 55.881 0 0 1 598.95 140.663 A 65.598 65.598 0 0 1 586.683 143.919 Q 579.144 145.2 570.273 145.2 Z" vector-effect="non-scaling-stroke"/>
    </g>
</svg>